<svg width="230" height="230" viewBox="0 0 230 230" fill="none" xmlns="http://www.w3.org/2000/svg">
<rect x="7.5" y="7.5" width="215" height="215" rx="57.5" fill="url(#paint0_linear)" stroke="white" stroke-width="15" stroke-linejoin="round"/>
<path d="M48.9092 86.91C46.9159 86.91 45.1825 86.1733 43.7092 84.7C42.2359 83.2267 41.4992 81.4933 41.4992 79.5V76.51C41.4992 74.5167 42.2359 72.7833 43.7092 71.31C45.1825 69.8367 46.9159 69.1 48.9092 69.1H100.909C102.903 69.1 104.593 69.8367 105.979 71.31C107.453 72.7833 108.189 74.5167 108.189 76.51V79.5C108.189 84.2667 106.976 88.8167 104.549 93.15C93.4559 112.303 83.9226 133.58 75.9492 156.98C75.2559 159.06 73.9992 160.75 72.1792 162.05C70.3592 163.35 68.3659 164 66.1992 164H57.3592C55.5392 164 54.1092 163.263 53.0692 161.79C52.0292 160.317 51.8559 158.713 52.5492 156.98C62.1692 131.933 73.6525 108.837 86.9992 87.69C87.1726 87.5167 87.2592 87.3433 87.2592 87.17C87.2592 86.9967 87.1726 86.91 86.9992 86.91H48.9092ZM129.56 86.91C127.567 86.91 125.833 86.1733 124.36 84.7C122.887 83.2267 122.15 81.4933 122.15 79.5V76.51C122.15 74.5167 122.887 72.7833 124.36 71.31C125.833 69.8367 127.567 69.1 129.56 69.1H181.56C183.553 69.1 185.243 69.8367 186.63 71.31C188.103 72.7833 188.84 74.5167 188.84 76.51V79.5C188.84 84.2667 187.627 88.8167 185.2 93.15C174.107 112.303 164.573 133.58 156.6 156.98C155.907 159.06 154.65 160.75 152.83 162.05C151.01 163.35 149.017 164 146.85 164H138.01C136.19 164 134.76 163.263 133.72 161.79C132.68 160.317 132.507 158.713 133.2 156.98C142.82 131.933 154.303 108.837 167.65 87.69C167.823 87.5167 167.91 87.3433 167.91 87.17C167.91 86.9967 167.823 86.91 167.65 86.91H129.56Z" fill="white"/>
<defs>
<linearGradient id="paint0_linear" x1="115" y1="15" x2="115" y2="215" gradientUnits="userSpaceOnUse">
<stop stop-color="#DD3F8B"/>
<stop offset="1" stop-color="#A139E1"/>
</linearGradient>
</defs>
</svg>
